<?xml version="1.0" standalone="no"?><!DOCTYPE svg PUBLIC "-//W3C//DTD SVG 20010904//EN" "http://www.w3.org/TR/2001/REC-SVG-20010904/DTD/svg10.dtd"><svg version="1.0" xmlns="http://www.w3.org/2000/svg" width="11" height="18" viewBox="0 0 12 19.195" fill="#969696"><path d="M6,0A5.839,5.839,0,0,0,3.668.469a6.161,6.161,0,0,0-1.91,1.277A5.963,5.963,0,0,0,0,6a11.961,11.961,0,0,0,.938,4.465A32.812,32.812,0,0,0,3,14.73a35.209,35.209,0,0,0,2.063,3.2L6,19.2l.938-1.266A35.208,35.208,0,0,0,9,14.73a32.812,32.812,0,0,0,2.063-4.266A11.961,11.961,0,0,0,12,6a5.963,5.963,0,0,0-1.758-4.254A6.161,6.161,0,0,0,8.332.469,5.839,5.839,0,0,0,6,0ZM6,9.3a3.115,3.115,0,0,1-2.285-.949A3.115,3.115,0,0,1,2.766,6.07a3.142,3.142,0,0,1,.949-2.309A3.115,3.115,0,0,1,6,2.813a3.115,3.115,0,0,1,2.285.949A3.142,3.142,0,0,1,9.234,6.07a3.115,3.115,0,0,1-.949,2.285A3.115,3.115,0,0,1,6,9.3Z"></path></svg>