<?xml version="1.0" standalone="no"?><!DOCTYPE svg PUBLIC "-//W3C//DTD SVG 20010904//EN" "http://www.w3.org/TR/2001/REC-SVG-20010904/DTD/svg10.dtd"><svg version="1.0" xmlns="http://www.w3.org/2000/svg" width="16.378" height="18.008" viewBox="0 0 16.378 18.008" fill="#969696"><path d="M13.923,1.63H12.274V.825a.816.816,0,0,0-.221-.6A.791.791,0,0,0,11.468,0a.816.816,0,0,0-.6.221.816.816,0,0,0-.221.6V1.63H5.734V.825a.816.816,0,0,0-.221-.6A.816.816,0,0,0,4.909,0a.791.791,0,0,0-.585.221.816.816,0,0,0-.221.6V1.63H2.455A2.372,2.372,0,0,0,.71,2.34,2.372,2.372,0,0,0,0,4.085V15.553A2.372,2.372,0,0,0,.71,17.3a2.372,2.372,0,0,0,1.745.71H13.923a2.423,2.423,0,0,0,2.455-2.455V4.085A2.423,2.423,0,0,0,13.923,1.63ZM2.455,3.279H4.1v.805a.816.816,0,0,0,.221.6.791.791,0,0,0,.585.221.762.762,0,0,0,.825-.825V3.279h4.909v.805a.762.762,0,0,0,.825.825.791.791,0,0,0,.585-.221.816.816,0,0,0,.221-.6V3.279h1.649a.758.758,0,0,1,.805.805V6.54H1.649V4.085a.758.758,0,0,1,.805-.805ZM13.923,16.359H2.455a.758.758,0,0,1-.805-.805V8.189H14.728v7.364a.758.758,0,0,1-.805.805Z"></path></svg>